<?xml version="1.0" encoding="utf-8"?>
<!-- Generator: Adobe Illustrator 18.0.0, SVG Export Plug-In . SVG Version: 6.00 Build 0)  -->
<!DOCTYPE svg PUBLIC "-//W3C//DTD SVG 1.1//EN" "http://www.w3.org/Graphics/SVG/1.1/DTD/svg11.dtd">
<svg version="1.1" id="图层_1" xmlns="http://www.w3.org/2000/svg" xmlns:xlink="http://www.w3.org/1999/xlink" x="0px" y="0px"
	 viewBox="0 0 841.9 595.3" enable-background="new 0 0 841.9 595.3" xml:space="preserve">
<path fill="#FAFAFA" d="M708,471.9H132.9c-12.7,0-23-10.3-23-23V146.6c0-12.7,10.3-23,23-23H708c12.7,0,23,10.3,23,23v302.3
	C730.9,461.6,720.7,471.9,708,471.9L708,471.9z M708,471.9"/>
<path fill="#A8A8A8" d="M132.9,78.6H61.3v71.6h10.3V88.9h61.3V78.6z M778.3,150.1V78.6h-71.5v10.3H768v61.3H778.3z M132.9,517.1
	H61.3v-71.6h10.3v61.3h61.3V517.1z M778.3,445.6v71.6h-71.5v-10.3H768v-61.3H778.3z M778.3,445.6"/>
<path fill="#EEEEEE" d="M162.4,185.6h328.6v39.9H162.4V185.6z M162.4,258.5h328.6v39.9H162.4V258.5z M162.4,258.5"/>
<path fill="#D8D8D8" d="M164.3,334.3h72.2v21h-72.2V334.3z M164.3,412.9h72.2v21h-72.2V412.9z M164.3,412.9"/>
<path fill="#EEEEEE" d="M263.2,334.3h163.9v21H263.2V334.3z M263.2,412.9h421.9v21H263.2V412.9z M263.2,412.9"/>
<path fill="#888888" d="M425.4,327.1c-8.9,7.5-21.5,8.4-31.4,2.3c-9.9-6.1-14.7-17.8-12-29.1c2.7-11.3,12.3-19.6,23.8-20.5
	c2.7-10.6,12.2-18,23.1-18c10.9,0,20.4,7.4,23.1,18c11.3,1,20.8,8.9,23.7,19.9c2.9,11-1.5,22.6-10.9,29c-9.4,6.4-21.8,6.2-31-0.6
	v-18.6h8.7c2.3,0,3.1-1.6,1.8-3.5l-13.8-19.4c-0.9-1.3-2.4-1.3-3.3,0L413.6,306c-1.4,1.9-0.6,3.5,1.8,3.5h10.1V327.1z M425.4,327.1"
	/>
<rect x="381.3" y="261.8" fill="none" width="95.5" height="71.7"/>
<g>
	<path fill="#FFCECF" d="M581.4,296.3c0.3-12,2.5-32.5,14.5-43l16.6,0.2l15.5,25.4l2.9-19l-2.1-3.4l0.2-3.5c3.1-0.2,6.1-0.2,9.2,0
		l0.2,3.5l-2.1,3.4l2.9,19.2l12-25.7l18.3-0.6c9.5,8.9,15.5,29.9,14.1,43.5H581.4z"/>
	<path fill="#FFCECF" d="M658.4,225.8c-1.3,4.5-2.7,8.6-4.9,12.1c-2.4,4-5.6,7.1-10.1,8.8c-2,0.7-7.2,1.1-12.1,1
		c-4.8-0.1-9.6-0.5-11.5-1.4c-4.1-1.9-7-5-9.2-9c-1.9-3.4-3.2-7.3-4.4-11.4c-1.9-1-3.4-2.7-4.3-5c-1.1-2.5-1.5-5.8-1.5-9.8l0-1.3
		l1.1-0.7c0.3-0.2,0.6-0.4,0.9-0.5c-1.3-15.4-0.8-21.1,5-27.7c11.2-9.1,37-8.8,48.4-0.5c7.8,7.3,8.3,15.4,5.9,28
		c0.4,0.2,0.7,0.4,1.1,0.7l1.1,0.7l0,1.3c0.1,3.8-0.4,7.1-1.4,9.6C661.6,223,660.3,224.7,658.4,225.8L658.4,225.8z"/>
</g>
</svg>
