<?xml version="1.0" encoding="utf-8"?>
<!-- Generator: Adobe Illustrator 18.0.0, SVG Export Plug-In . SVG Version: 6.00 Build 0)  -->
<!DOCTYPE svg PUBLIC "-//W3C//DTD SVG 1.1//EN" "http://www.w3.org/Graphics/SVG/1.1/DTD/svg11.dtd">
<svg version="1.1" id="图层_1" xmlns="http://www.w3.org/2000/svg" xmlns:xlink="http://www.w3.org/1999/xlink" x="0px" y="0px"
	 viewBox="0 0 841.9 595.3" enable-background="new 0 0 841.9 595.3" xml:space="preserve">
<path fill="#FAFAFA" d="M708,471.9H132.9c-12.7,0-23-10.3-23-23V146.6c0-12.7,10.3-23,23-23H708c12.7,0,23,10.3,23,23v302.3
	C730.9,461.6,720.7,471.9,708,471.9L708,471.9z M708,471.9"/>
<path fill="#A8A8A8" d="M132.9,78.6H61.3v71.6h10.3V88.9h61.3V78.6z M778.3,150.1V78.6h-71.5v10.3H768v61.3H778.3z M132.9,517.1
	H61.3v-71.6h10.3v61.3h61.3V517.1z M778.3,445.6v71.6h-71.5v-10.3H768v-61.3H778.3z M778.3,445.6"/>
<path fill="#EEEEEE" d="M312.5,185.6h328.6v39.9H312.5V185.6z M312.5,258.5h328.6v39.9H312.5V258.5z M312.5,258.5"/>
<path fill="#D8D8D8" d="M204.8,334.3h61.7v21h-61.7V334.3z M204.8,412.9h61.7v21h-61.7V412.9z M204.8,412.9"/>
<path fill="#EEEEEE" d="M287.2,334.3h163.9v21H287.2V334.3z M287.2,412.9h421.9v21H287.2V412.9z M287.2,412.9"/>
<path fill="#FFCECF" d="M212.8,204.4l8-5.8h-9.9l-3.1-9.4l-3,9.4h-9.9l8,5.8l-3.1,9.4l8-5.8l8,5.8L212.8,204.4z M186.5,210l-1.8-4.4
	l-1.1,4.6l-4.7,0.4l4,2.5l-1.1,4.6l3.6-3.1l4,2.5l-1.8-4.4l3.6-3.1L186.5,210z M201.3,219.4l-3.1,3.6l-4.4-1.8l2.5,4l-3.1,3.6
	l4.6-1.1l2.5,4l0.4-4.7l4.6-1.1l-4.4-1.8L201.3,219.4z M222.1,221l-4.4,1.8l-3.1-3.6l0.4,4.7l-4.4,1.8l4.6,1.1l0.4,4.7l2.5-4
	l4.6,1.1l-3.1-3.6L222.1,221z M232,210.4l-1.1-4.6l-1.8,4.4l-4.7-0.4l3.6,3.1l-1.8,4.4l4-2.5l3.6,3.1l-1.1-4.6l4-2.5L232,210.4z
	 M232,210.4"/>
<path fill="#FFCECF" d="M266.9,232.5c0-32.7-26.5-59.2-59.2-59.2c-32.7,0-59.2,26.5-59.2,59.2c0,16.6,6.8,31.6,17.8,42.3l-2.5,11.9
	c0,5.1,4.1,11,9.2,11h69.2c5.1,0,9.2-6,9.2-11l-2.6-11.7C260,264.2,266.9,249.2,266.9,232.5L266.9,232.5z M207.7,276.4
	c-11.6,0-22.1-4.5-29.9-11.8h59.9C229.8,271.9,219.3,276.4,207.7,276.4L207.7,276.4z M242.2,259.7l-1.1-5h-16.5v-3.9h1.5l-2.2-4.4
	h-2l-1-3.9h-26.1l-1,3.9h-2l-2.2,4.4h1.5v3.9h-16.5l-1.1,5c-6.1-7.7-9.5-17.3-9.4-27.2c0-24.2,19.7-43.9,43.9-43.9
	c24.2,0,43.9,19.7,43.9,43.9C251.6,242.4,248.3,252,242.2,259.7L242.2,259.7z M242.2,259.7"/>
<path fill="#888888" d="M425.4,327.1c-8.9,7.5-21.5,8.4-31.4,2.3c-9.9-6.1-14.7-17.8-12-29.1c2.7-11.3,12.3-19.6,23.8-20.5
	c2.7-10.6,12.2-18,23.1-18c10.9,0,20.4,7.4,23.1,18c11.3,1,20.8,8.9,23.7,19.9c2.9,11-1.5,22.6-10.9,29c-9.4,6.4-21.8,6.2-31-0.6
	v-18.6h8.7c2.3,0,3.1-1.6,1.8-3.5l-13.8-19.4c-0.9-1.3-2.4-1.3-3.3,0L413.6,306c-1.4,1.9-0.6,3.5,1.8,3.5h10.1V327.1z M425.4,327.1"
	/>
<rect x="381.3" y="261.8" fill="none" width="95.5" height="71.7"/>
</svg>
