<?xml version="1.0" encoding="utf-8"?>
<!-- Generator: Adobe Illustrator 18.0.0, SVG Export Plug-In . SVG Version: 6.00 Build 0)  -->
<!DOCTYPE svg PUBLIC "-//W3C//DTD SVG 1.1//EN" "http://www.w3.org/Graphics/SVG/1.1/DTD/svg11.dtd">
<svg version="1.1" id="图层_1" xmlns="http://www.w3.org/2000/svg" xmlns:xlink="http://www.w3.org/1999/xlink" x="0px" y="0px"
	 viewBox="0 0 841.9 595.3" enable-background="new 0 0 841.9 595.3" xml:space="preserve">
<path fill="#A8A8A8" d="M132.9,78.6H61.3v71.6h10.3V88.9h61.3V78.6z M778.3,150.1V78.6h-71.5v10.3H768v61.3H778.3z M132.9,517.1
	H61.3v-71.6h10.3v61.3h61.3V517.1z M778.3,445.6v71.6h-71.5v-10.3H768v-61.3H778.3z M778.3,445.6"/>
<rect x="381.3" y="261.8" fill="none" width="95.5" height="71.7"/>
<g>
	<path d="M275.8,383.8"/>
	<path fill="#FAFAFA" d="M398.1,492H98.5c-6.6,0-12-5.4-12-12V322.5c0-6.6,5.4-12,12-12h299.7c6.6,0,12,5.4,12,12V480
		C410.1,486.6,404.7,492,398.1,492L398.1,492z M398.1,492"/>
	<path fill="#EEEEEE" d="M113.8,342.8h171.3v20.8H113.8V342.8z M113.8,380.8h171.3v20.8H113.8V380.8z M113.8,380.8"/>
	<path fill="#D8D8D8" d="M114.8,420.3h37.6v11h-37.6V420.3z M114.8,461.2h37.6v11h-37.6V461.2z M114.8,461.2"/>
	<path fill="#EEEEEE" d="M166.4,420.3h85.4v11h-85.4V420.3z M166.4,461.2h219.9v11H166.4V461.2z M166.4,461.2"/>
	<rect x="227.9" y="382.5" fill="none" width="49.8" height="37.4"/>
	<g>
		<path fill="#F7CACB" d="M332.1,400.5c0.1-6.3,1.3-16.9,7.6-22.4l8.6,0.1l8.1,13.3l1.5-9.9l-1.1-1.8l0.1-1.8c1.6-0.1,3.2-0.1,4.8,0
			l0.1,1.8l-1.1,1.8l1.5,10l6.3-13.4l9.5-0.3c4.9,4.6,8.1,15.6,7.3,22.7H332.1z"/>
		<path fill="#F7CACB" d="M372.3,363.7c-0.7,2.3-1.4,4.5-2.5,6.3c-1.3,2.1-2.9,3.7-5.3,4.6c-1.1,0.4-3.7,0.6-6.3,0.5
			c-2.5,0-5-0.3-6-0.7c-2.1-1-3.6-2.6-4.8-4.7c-1-1.7-1.7-3.8-2.3-5.9c-1-0.5-1.8-1.4-2.3-2.6c-0.6-1.3-0.8-3-0.8-5.1l0-0.7l0.6-0.4
			c0.1-0.1,0.3-0.2,0.4-0.3c-0.7-8-0.4-11,2.6-14.4c5.9-4.8,19.3-4.6,25.2-0.3c4,3.8,4.3,8,3.1,14.6c0.2,0.1,0.4,0.2,0.6,0.4
			l0.6,0.4l0,0.7c0,2-0.2,3.7-0.7,5C374,362.3,373.3,363.2,372.3,363.7L372.3,363.7z"/>
	</g>
</g>
<g>
	<path fill="#FAFAFA" d="M736.6,493.1H435c-6.6,0-12-5.4-12-12V322.6c0-6.6,5.4-12,12-12h301.6c6.7,0,12,5.4,12,12v158.5
		C748.6,487.7,743.3,493.1,736.6,493.1L736.6,493.1z M736.6,493.1"/>
	<rect x="565.2" y="383" fill="none" width="50.1" height="37.6"/>
	<text transform="matrix(1 0 0 1 559.1743 382.9551)" font-family="'PingFangSC-Light-GBpc-EUC-H'" font-size="31.4691">洛格</text>
	<text transform="matrix(1 0 0 1 490.2084 446.4141)" font-family="'PingFangSC-Light-GBpc-EUC-H'" font-size="31.4691">20XX-XX-XX</text>
</g>
<path fill="#B7B7B7" d="M356.8,174.9c3.1,21.7,10.5,33.9,15.4,39.8h101c5-6.1,12.6-18.1,15.4-39.8c9.3,2.6,12.7-10.5,13.3-18.6
	c0.5-7.8,5.7-32.6-6.1-30.5c2.4-16.7,4.2-31.5,3.4-39.3c-2.9-27.9-23.7-56.9-76.1-58.9c-44.6,2-73.5,31.4-76.4,58.9
	c-0.7,7.8,0.7,22.9,3.1,39.3c-11.7-2.4-6.5,22.7-6,30.5C344,164.4,347.1,177.2,356.8,174.9L356.8,174.9z"/>
<path fill="#888888" d="M425.4,327.1c-8.9,7.5-21.5,8.4-31.4,2.3c-9.9-6.1-14.7-17.8-12-29.1c2.7-11.3,12.3-19.6,23.8-20.5
	c2.7-10.6,12.2-18,23.1-18c10.9,0,20.4,7.4,23.1,18c11.3,1,20.8,8.9,23.7,19.9c2.9,11-1.5,22.6-10.9,29c-9.4,6.4-21.8,6.2-31-0.6
	v-18.6h8.7c2.3,0,3.1-1.6,1.8-3.5l-13.8-19.4c-0.9-1.3-2.4-1.3-3.3,0L413.6,306c-1.4,1.9-0.6,3.5,1.8,3.5h10.1V327.1z M425.4,327.1"
	/>
<path fill="#A8A8A8" d="M77.1,429.7L77.1,429.7c-14.4,0-26.3-11.8-26.3-26.3v-28.5c0-14.4,11.8-26.3,26.3-26.3h0
	c14.4,0,26.3,11.8,26.3,26.3v28.5C103.3,417.9,91.5,429.7,77.1,429.7z"/>
<path fill="#A8A8A8" d="M757.5,429.7L757.5,429.7c-14.4,0-26.3-11.8-26.3-26.3v-28.5c0-14.4,11.8-26.3,26.3-26.3h0
	c14.4,0,26.3,11.8,26.3,26.3v28.5C783.8,417.9,772,429.7,757.5,429.7z"/>
</svg>
